<svg width="511" height="338" viewBox="0 0 511 338" fill="none" xmlns="http://www.w3.org/2000/svg">
<path d="M406.192 64.7917C391.531 49.1413 380.181 30.4577 362.657 17.6855C335.131 -2.41863 295.516 -4.3788 263.33 8.25066C231.144 20.8801 206.072 46.3375 189.546 75.1632C180.853 90.3298 174.025 106.873 161.287 119.267C150.518 129.738 136.366 136.419 122.947 143.695C101.311 155.394 80.4754 169.531 66.4748 188.928C52.4741 208.325 46.2142 233.801 55.1645 255.66C61.1997 270.411 73.3561 282.147 85.81 292.773C100.465 305.266 116.217 316.965 134.396 324.409C157.155 333.67 182.42 335.661 207.195 336.604C251.118 338.268 295.11 337.025 338.846 332.882C374.661 329.496 411.56 323.714 441.525 305C483.5 278.792 505.142 230.774 510.014 183.686C511.997 164.854 511.495 145.283 503.747 127.809C485.219 86.0124 435.225 95.7885 406.192 64.7917Z" fill="#EFF1F7"/>
<path d="M120.666 152.545C120.666 152.545 109.513 150.552 106.389 158.406C103.264 166.261 106.389 193.388 106.389 193.388L148 223.319L120.666 152.545Z" fill="#3F3D56"/>
<path d="M173.717 273.227L156.916 278.133C154.475 278.84 151.915 277.467 151.188 275.063C150.472 272.656 151.864 270.131 154.302 269.415L171.079 264.505C173.519 263.798 176.079 265.168 176.807 267.57C177.532 269.973 176.15 272.502 173.717 273.227Z" fill="#2BD0D0"/>
<circle cx="172.5" cy="282.819" r="7.5" fill="#25233A"/>
<circle cx="171.5" cy="284.819" r="3.5" fill="#3F3D56"/>
<circle cx="142.5" cy="275.819" r="7.5" fill="#25233A"/>
<path d="M145 275.819C145 277.752 143.433 279.319 141.5 279.319C139.567 279.319 138 277.752 138 275.819C138 273.886 139.567 272.319 141.5 272.319C143.433 272.319 145 273.886 145 275.819Z" fill="url(#paint0_linear_1101_2)"/>
<circle cx="140.5" cy="285.819" r="7.5" fill="#25233A"/>
<path d="M146 285.819C146 287.752 144.433 289.319 142.5 289.319C140.567 289.319 139 287.752 139 285.819C139 283.886 140.567 282.319 142.5 282.319C144.433 282.319 146 283.886 146 285.819Z" fill="#3F3D56"/>
<path d="M174.682 280.231L140.56 273.243C138.158 272.744 136.606 270.369 137.087 267.93C137.579 265.496 139.916 263.921 142.318 264.407L176.44 271.382C178.842 271.88 180.394 274.255 179.913 276.694C179.427 279.134 177.088 280.716 174.682 280.231Z" fill="#2BD0D0"/>
<path d="M154 225.319H163V265.545C163 268.182 160.986 270.319 158.502 270.319C156.018 270.319 154.004 268.182 154.004 265.545V225.319H154Z" fill="#2BD0D0"/>
<path d="M156.707 277.214L139.918 282.132C137.477 282.842 134.914 281.468 134.188 279.06C133.472 276.652 134.863 274.125 137.3 273.409L154.089 268.505C156.527 267.798 159.086 269.168 159.814 271.572C160.525 273.976 159.137 276.496 156.707 277.214Z" fill="#2BD0D0"/>
<path d="M160 277.578L157.917 278.13C157.295 278.293 156.645 278.351 156 278.301L156.87 278.074C157.475 277.917 158.042 277.661 158.542 277.319L160 277.578Z" fill="url(#paint1_linear_1101_2)"/>
<path d="M177 267.607C176.999 268.596 176.648 269.555 176.005 270.319L162 267.551C162.352 267.082 162.607 266.549 162.749 265.984L171.376 263.487C172.499 263.171 173.704 263.303 174.726 263.856C175.749 264.408 176.505 265.334 176.828 266.432C176.94 266.814 176.998 267.209 177 267.607Z" fill="url(#paint2_linear_1101_2)"/>
<path opacity="0.31" d="M153.147 266.7C153.049 266.352 153 265.996 153 265.639V226.319H156.962V268.694C156.923 268.902 156.936 269.115 157 269.319C156.4 269.107 155.757 268.99 155.104 268.975C154.643 268.948 154.18 268.948 153.719 268.975L154.003 268.908C154.177 268.882 153.376 267.503 153.147 266.7Z" fill="url(#paint3_linear_1101_2)"/>
<path opacity="0.31" d="M177.522 279.354C176.87 279.723 176.137 279.917 175.392 279.916C175.093 279.915 174.794 279.885 174.499 279.825L159.444 276.714L158.19 276.458C157.761 276.795 157.275 277.048 156.757 277.203L156.011 277.426L140.541 282.131C138.18 282.843 135.702 281.466 135 279.053C136.342 280.327 138.379 280.445 139.853 279.336C141.742 277.997 149.26 275.988 153.52 274.919C155.533 274.426 157.073 272.766 157.449 270.684C157.459 270.561 157.477 270.439 157.502 270.319C158.212 271.104 159.516 271.986 161.873 272.735C167.677 274.562 177.102 275.773 177.102 275.773C177.102 275.773 178.803 277.481 177.522 279.354Z" fill="url(#paint4_linear_1101_2)"/>
<path d="M179 278.319C178.736 278.708 178.397 279.047 178 279.319C178.269 279.058 178.614 278.711 179 278.319Z" fill="url(#paint5_linear_1101_2)"/>
<path d="M153.866 266.782C154.051 267.593 154.442 268.34 155 268.949C154.861 268.976 154.717 269.013 154.573 269.054L140.392 273.319C138.211 272.756 136.775 270.643 137.029 268.372C137.283 266.1 139.15 264.369 141.4 264.319C141.702 264.319 142.003 264.35 142.3 264.41L153.866 266.782Z" fill="url(#paint6_linear_1101_2)"/>
<path d="M175 76.1434C175 76.1434 174.814 62.0779 163.531 63.2907C152.249 64.5036 153.114 59.8467 148.294 60.3581C143.475 60.8695 137.877 65.6214 139.485 71.4911C141.093 77.3608 135.231 78.6733 131.381 83.1264C127.531 87.5796 132.287 91.2228 138.773 95.5764C145.26 99.93 138.37 98.8031 142.216 105.687C146.061 112.57 159.079 103.777 159.079 103.777L175 76.1434Z" fill="#503164"/>
<path d="M82.8394 310.048L90.7905 310.319V246.706C90.7905 246.706 91.191 230.257 106.688 228.607C122.185 226.957 262.732 206.576 262.732 206.576C262.732 206.576 268.303 205.985 271.511 216.687C274.719 227.389 277.842 269.472 277.842 269.472L320.981 275.292C320.981 275.292 322.12 200.954 306.542 196.852C290.963 192.75 87.2356 213.654 87.2356 213.654C87.2356 213.654 72.1254 292.607 82.8394 310.048Z" fill="#2BD0D0"/>
<path opacity="0.197289" d="M82.8394 310.048L90.7905 310.319V246.706C90.7905 246.706 91.191 230.257 106.688 228.607C122.185 226.957 262.732 206.576 262.732 206.576C262.732 206.576 268.303 205.985 271.511 216.687C274.719 227.389 277.842 269.472 277.842 269.472L320.981 275.292C320.981 275.292 322.12 200.954 306.542 196.852C290.963 192.75 87.2356 213.654 87.2356 213.654C87.2356 213.654 72.1254 292.607 82.8394 310.048Z" fill="url(#paint7_linear_1101_2)"/>
<path d="M42 220.797C42 220.797 45.8977 199.21 73.3121 193.552L266.829 171.361C266.829 171.361 285.827 170.572 294.518 175.838C303.209 181.105 315.613 185.47 320.699 209.301C325.785 233.132 327 273.843 327 273.843L322.189 274.59C322.189 274.59 315.167 200.872 307.728 196.205C300.288 191.538 99.1332 220.171 99.1332 220.171C99.1332 220.171 85.1807 222.951 83.9655 243.646C82.7503 264.342 83.9655 309.319 83.9655 309.319L42 292.362V220.797Z" fill="#2BD0D0"/>
<path opacity="0.19" d="M241.579 180.237C231.55 178.955 221.439 178.027 211.333 178.403C203.738 178.695 196.192 179.729 188.66 180.758L122.233 189.865C121.106 190.019 119.821 190.271 119.258 191.243C118.176 193.099 120.718 194.928 122.778 195.635C144.865 203.226 168.462 210.915 191.198 205.502C201.592 203.028 211.248 197.889 221.791 196.104C232.334 194.319 243.156 195.962 253.677 194.279C263.567 192.697 272.983 188.203 283.008 188.159C286.082 188.159 289.246 188.548 292.162 187.594C295.079 186.639 297.657 183.723 296.85 180.816C287.438 180.493 276.873 178.787 267.641 180.639C258.505 182.468 250.729 180.237 241.579 180.237Z" fill="url(#paint8_linear_1101_2)"/>
<path d="M181 190.905L181.384 192.315C181.384 192.315 192.765 199.097 192.693 199.316C192.622 199.534 239.9 188.489 239.9 188.489L241 185.319L181 190.905Z" fill="#2BD0D0"/>
<path d="M181 190.905L181.384 192.315C181.384 192.315 192.765 199.097 192.693 199.316C192.622 199.534 239.9 188.489 239.9 188.489L241 185.319L181 190.905Z" fill="url(#paint9_linear_1101_2)"/>
<path d="M182 191.431L224.345 182.319L242 185.765L193.893 197.319L182 191.431Z" fill="#2BD0D0"/>
<path d="M182 191.431L224.345 182.319L242 185.765L193.893 197.319L182 191.431Z" fill="url(#paint10_linear_1101_2)"/>
<path d="M168.221 198.975L177.859 199.316C177.859 199.316 180.307 199.468 180.94 197.505C181.573 195.542 177.013 191.398 176.524 191.32C176.036 191.242 163.352 194.8 165.18 198.357L168.221 198.975Z" fill="#2BD0D0"/>
<path d="M168.221 198.975L177.859 199.316C177.859 199.316 180.307 199.468 180.94 197.505C181.573 195.542 177.013 191.398 176.524 191.32C176.036 191.242 163.352 194.8 165.18 198.357L168.221 198.975Z" fill="url(#paint11_linear_1101_2)"/>
<path d="M54 297.05L49.2003 312.057C35.2788 317.146 23.4424 312.057 23.4424 312.057L20 296.319C20 296.319 37.3639 302.245 54 297.05Z" fill="#2BD0D0"/>
<path d="M54 297.05L49.2003 312.057C35.2788 317.146 23.4424 312.057 23.4424 312.057L20 296.319C20 296.319 37.3639 302.245 54 297.05Z" fill="url(#paint12_linear_1101_2)"/>
<path d="M59 283.319L57.4539 295.105L53.537 297.198C36.8521 302.36 19.4099 296.476 19.4099 296.476L16.4027 294.192L15 283.319H59Z" fill="#2BD0D0"/>
<path d="M59 283.319L57.4539 295.105L53.537 297.198C36.8521 302.36 19.4099 296.476 19.4099 296.476L16.4027 294.192L15 283.319H59Z" fill="url(#paint13_linear_1101_2)"/>
<ellipse cx="37" cy="283.319" rx="22" ry="4" fill="#2BD0D0"/>
<ellipse cx="37" cy="283.319" rx="22" ry="4" fill="url(#paint14_linear_1101_2)"/>
<path d="M27.1616 195.229C24.9809 194.198 22.6374 193.421 20.7507 191.916C16.9503 188.855 15.9867 183.585 14.7968 178.857C13.6069 174.128 11.3041 168.93 6.61238 167.574C4.85697 167.072 2.79842 167.271 1.46376 168.519C0.0567119 169.834 -0.228317 171.995 0.156246 173.902C0.540809 175.81 1.47733 177.519 2.20122 179.327C3.89161 183.526 4.40616 188.106 3.6897 192.575C3.09702 196.241 1.68093 199.957 2.59031 203.551C4.13308 209.648 11.8198 213.224 12.0325 219.507C12.1772 223.747 8.6845 227.671 9.47625 231.843C10.0599 234.93 12.9056 237.339 13.0595 240.476C13.2314 244.034 9.86534 247.044 10.0282 250.602C10.1911 254.159 13.7472 256.537 16.0681 259.335C18.0139 261.685 19.1708 264.587 19.3754 267.629C19.4975 269.528 19.2532 271.494 19.873 273.293C20.3255 274.609 21.2303 275.725 21.9316 276.91C22.7052 278.189 23.2889 279.572 24.2209 280.756C26.6182 283.775 30.6157 285.029 34.31 283.92C35.0293 279.192 34.4005 274.369 34.5995 269.591C34.9932 260.334 38.4995 251.004 36.2554 242.018C35.432 238.723 33.8485 235.595 33.568 232.213C33.3192 229.194 34.1245 226.202 34.6855 223.223C35.8437 217.071 35.8256 210.711 35.3506 204.491C34.9751 199.555 31.5004 197.281 27.1616 195.229Z" fill="#2BD0D0"/>
<path d="M40.2266 219.498C40.1909 223.621 41.1206 227.884 39.8154 231.8C38.8275 234.767 36.6552 237.196 35.5332 240.114C32.9452 246.847 36.4272 254.399 35.7165 261.588C35.4215 264.551 34.4158 267.396 33.781 270.304C32.9927 273.987 32.7995 277.773 33.2089 281.518C33.1223 282.927 34.075 284.187 35.4438 284.472C37.6339 285.316 39.9027 285.935 42.2157 286.319C41.4338 281.959 42.2574 277.462 44.5311 273.673C48.0758 267.802 54.9639 263.846 56.2467 257.104C57.1139 252.538 55.0935 247.904 55.2365 243.257C55.3395 240.165 56.3924 237.182 58.2492 234.722C59.9165 232.527 62.1738 230.829 63.7248 228.553C67.4527 223.065 66.2906 215.731 65.182 209.169C64.0735 202.607 63.4298 195.056 67.8103 190.084C69.196 188.512 71.0018 187.334 72.2579 185.654C75.056 181.91 74.3498 176.142 71.0957 172.796C67.8416 169.45 62.6029 168.524 58.1777 169.996C56.3111 170.552 54.6636 171.684 53.4664 173.234C51.2315 176.441 52.1255 180.821 53.0731 184.633C53.9 187.943 54.566 191.764 53.4352 195.101C52.5903 197.585 50.4493 198.931 48.63 200.661C43.4201 205.531 40.3879 212.328 40.2266 219.498Z" fill="#2BD0D0"/>
<path d="M36.3575 256.104C35.7148 260.589 34.787 265.109 34.597 269.608V270.06C34.5868 270.171 34.5609 270.281 34.52 270.385C33.7173 274.07 33.5171 277.861 33.9271 281.61C33.9515 282.218 34.1058 282.813 34.3797 283.355C34.3571 283.545 34.3299 283.73 34.3028 283.92C30.6073 285.029 26.6086 283.775 24.2104 280.756C23.3053 279.571 22.6943 278.188 21.9204 276.909C21.1963 275.72 20.3138 274.603 19.8612 273.292C19.2412 271.484 19.4856 269.526 19.3634 267.628C19.1588 264.584 18.0015 261.682 16.0551 259.332C13.7334 256.552 10.1717 254.219 10.0133 250.602C9.85489 246.986 13.2175 244.034 13.0455 240.476C12.8916 237.338 10.045 234.929 9.46116 231.841C8.66916 227.669 12.1766 223.745 12.0182 219.504C11.8055 213.22 4.11629 209.644 2.57302 203.546C1.66788 199.952 3.0799 196.236 3.67277 192.569C4.39268 188.105 3.88426 183.53 2.20192 179.333C1.4778 177.524 0.540981 175.82 0.156296 173.908C-0.22839 171.995 0.05673 169.839 1.46423 168.519C2.82194 167.271 4.85851 167.072 6.61448 167.574C11.3122 168.93 13.6067 174.147 14.8015 178.876C15.9963 183.605 16.9557 188.871 20.7573 191.936C22.6355 193.451 24.9889 194.219 27.1703 195.25C31.5149 197.303 34.9907 199.577 35.3618 204.468C35.8144 210.689 35.8551 217.049 34.6965 223.202C34.1353 226.181 33.3388 229.174 33.5787 232.194C33.8185 235.214 35.1355 238.071 35.9954 241C36.0904 241.33 36.1855 241.665 36.2669 241.999C37.4074 246.651 37.0408 251.357 36.3575 256.104Z" fill="#30C59B"/>
<path d="M33.7185 282.319C33.421 281.791 33.2496 281.21 33.2157 280.616C32.7851 276.949 33.0001 273.241 33.8525 269.637C33.8765 269.531 33.9052 269.425 33.9339 269.319C33.7616 273.661 34.3074 278.038 33.7185 282.319Z" fill="url(#paint15_linear_1101_2)"/>
<path d="M72.2479 185.654C70.9899 187.334 69.1813 188.512 67.7935 190.084C63.4063 195.052 64.051 202.607 65.1612 209.169C66.2714 215.731 67.4354 223.065 63.7018 228.553C62.1484 230.811 59.8876 232.527 58.2178 234.722C56.3581 237.182 55.3036 240.165 55.2005 243.257C55.0572 247.904 57.0807 252.538 56.2122 257.104C54.9274 263.846 48.0287 267.812 44.4786 273.673C42.2099 277.465 41.3916 281.962 42.1776 286.319C39.8669 285.935 37.6006 285.316 35.4132 284.472C34.815 284.292 34.2724 283.961 33.8374 283.51C33.7757 283.436 33.7203 283.358 33.6718 283.275C33.3943 282.737 33.234 282.146 33.2017 281.541C32.799 277.795 33.0001 274.008 33.7971 270.327C33.8195 270.219 33.8464 270.11 33.8732 270.002C34.5089 267.206 35.449 264.465 35.7356 261.611C35.8879 259.76 35.8519 257.899 35.6281 256.056C36.3041 251.314 36.6667 246.613 35.5252 241.997C35.4446 241.663 35.3506 241.329 35.2565 240.999C35.3416 240.71 35.4401 240.421 35.552 240.136C36.6757 237.219 38.8514 234.789 39.8407 231.822C41.1435 227.907 40.2168 223.643 40.2526 219.52C40.3108 212.398 43.4938 205.52 48.6062 200.661C50.4282 198.931 52.5726 197.585 53.4187 195.101C54.5513 191.764 53.8664 187.943 53.0561 184.633C52.1025 180.821 51.1982 176.441 53.45 173.234C54.5692 171.644 56.3331 170.61 58.1685 169.996C62.5826 168.524 67.8517 169.45 71.1063 172.796C74.3609 176.142 75.0503 181.932 72.2479 185.654Z" fill="#30C59B"/>
<path d="M152.829 114.772C152.829 114.772 134.028 117.684 125.332 138.457C116.635 159.231 121.158 184.967 121.31 187.232C121.462 189.496 147.958 199.319 155.532 199.319C163.107 199.319 164.685 191.715 164.685 191.715L151.3 186.004L191.967 181.299H199.269L195.247 188.092C195.247 188.092 203.184 188.925 208.488 189.116C213.793 189.306 217.395 178.795 217.989 173.568C218.584 168.342 194.559 122.471 190.97 119.754C187.382 117.036 177.644 110.397 152.829 114.772Z" fill="#2BD0D0"/>
<path d="M175.853 75.2437C175.853 75.2437 179.289 77.1665 178.98 83.3873C178.671 89.6081 176.734 98.9688 174.779 101.394C172.823 103.819 165.983 104.769 165.983 104.769C165.983 104.769 169.714 113.587 172.491 115.862C175.268 118.138 169.701 126.521 164.286 123.771C158.871 121.02 152.594 114.111 152.594 114.111C152.594 114.111 157.109 105.791 155.583 101.412C154.056 97.0324 148.226 81.6636 152.594 77.4651C156.962 73.2666 166.38 67.2493 175.853 75.2437Z" fill="url(#paint16_linear_1101_2)"/>
<path opacity="0.25" d="M145.889 144.319L143 180.651L151.825 185.319L159 184.056L150.048 172.964L145.889 144.319Z" fill="white"/>
<path opacity="0.25" d="M193 142.319C193 142.319 204.939 171.108 199.647 181.319L195.569 180.524L193 142.319Z" fill="white"/>
<path d="M160.094 190.016C160.094 190.016 155.465 193.865 157.531 196.86C159.597 199.854 162.064 199.769 164.121 198.43C166.178 197.091 170.218 193.913 175.031 195.371C179.845 196.83 181.013 197.758 181.013 197.758C181.013 197.758 183.549 196.214 182.891 194.665C182.233 193.117 177.199 188.099 175.74 187.449C174.281 186.799 168.225 188.796 168.225 188.796C168.225 188.796 163.776 187.624 160.094 190.016Z" fill="url(#paint17_linear_1101_2)"/>
<path d="M200.794 181.384C200.794 181.384 196.537 181.89 195.462 184.689C194.387 187.488 194 187.828 194 187.828C194 187.828 196.404 188.289 197.404 186.986C198.403 185.683 199.443 186.231 199.443 186.231L199.146 187.902C199.146 187.902 205.677 188.887 208.628 187.828C211.578 186.77 212.845 185.527 212.845 185.527L214 182.7C214 182.7 211.214 180.679 209.112 180.366C207.01 180.053 200.794 181.384 200.794 181.384Z" fill="url(#paint18_linear_1101_2)"/>
<path d="M223.406 211.319C223.406 211.319 238.235 222.673 236.917 238.031C235.599 253.389 233.663 276.193 233.663 276.193C233.663 276.193 227.683 278.726 223.72 276.193C219.757 273.661 217.358 239.009 215.394 235.7C213.431 232.39 201.62 217.471 189 216.187L223.406 211.319Z" fill="#25233A"/>
<path d="M149 222.478C149 222.478 156.041 229.207 168.593 231.32C181.144 233.433 186.995 235.195 190.831 246.011C194.667 256.827 198.347 280.104 199.551 282.706C200.755 285.308 205.876 283.98 205.876 283.98C205.876 283.98 208.772 280.651 208.772 262.142C208.772 236.339 210.562 231.051 204.112 224.568C197.662 218.086 191.793 216.319 191.793 216.319L149 222.478Z" fill="#3F3D56"/>
<path d="M199 284.319L200.235 293.783H202.547C202.547 293.783 217.441 294.575 217.908 294.233C218.375 293.891 217.191 286.738 211.548 286.94C205.905 287.142 205.535 285.591 205.535 285.591L199 284.319Z" fill="#25233A"/>
<path d="M225 277.089L227.345 286.319L252.97 282.844C252.97 282.844 253.872 276.782 245.754 277.383C243.612 277.539 242.016 279.027 239.441 279.04C236.865 279.054 234.399 278.011 233.1 276.319L225 277.089Z" fill="#25233A"/>
<path d="M313.111 159.123L216.458 164.313C214.121 164.435 212.126 162.637 212 160.295C212 160.223 212 160.146 212 160.074V91.419C212.002 88.6387 214.22 86.3695 216.993 86.3107L313.25 84.3197C314.485 84.2944 315.679 84.7619 316.57 85.6194C317.461 86.4769 317.975 87.6541 318 88.8919V153.957C317.997 156.707 315.85 158.975 313.111 159.123Z" fill="#2BD0D0"/>
<path d="M319.11 159.124L222.454 164.313C220.116 164.433 218.123 162.633 218 160.29C218 160.218 218 160.146 218 160.074V91.4189C217.997 88.6384 220.215 86.367 222.989 86.3106L319.259 84.3195C321.825 84.2718 323.946 86.315 324 88.8873V153.957C323.997 156.707 321.85 158.975 319.11 159.124Z" fill="#2BD0D0"/>
<path d="M319.11 159.124L222.454 164.313C220.116 164.433 218.123 162.633 218 160.29C218 160.218 218 160.146 218 160.074V91.4189C217.997 88.6384 220.215 86.367 222.989 86.3106L319.259 84.3195C321.825 84.2718 323.946 86.315 324 88.8873V153.957C323.997 156.707 321.85 158.975 319.11 159.124Z" fill="url(#paint19_linear_1101_2)"/>
<path d="M289.845 185.696L265.134 188.319C265.134 188.319 257.609 186.805 258.016 185.696C258.423 184.588 266.292 183.52 266.292 183.52V138.838C266.224 138.739 265.188 137.423 262.351 136.585C261.801 136.422 261.242 136.293 260.677 136.198C260.191 136.127 259.718 135.984 259.274 135.774C257.586 134.904 259.45 133.39 262.07 133.323C262.481 133.308 262.891 133.333 263.297 133.395H282.302C282.302 133.395 289.497 135.414 289.845 145.489C290.194 155.564 289.845 185.696 289.845 185.696Z" fill="#3A3054"/>
<path d="M270 185.791L265.286 188.319C265.286 188.319 257.6 186.805 258.016 185.696C258.432 184.587 266.483 183.519 266.483 183.519V138.834C266.386 138.731 265.207 137.546 262.458 136.581C261.434 136.23 260.383 135.959 259.315 135.77C257.591 134.9 259.495 133.386 262.171 133.319C264.45 133.621 268.937 136.054 269.228 137.442C269.519 138.83 270 185.791 270 185.791Z" fill="#51466B"/>
<path d="M179 279.319C178.119 280.32 177.709 280.69 178.23 279.866C178.5 279.707 178.757 279.524 179 279.319Z" fill="url(#paint20_linear_1101_2)"/>
<defs>
<linearGradient id="paint0_linear_1101_2" x1="138" y1="279.319" x2="145" y2="279.319" gradientUnits="userSpaceOnUse">
<stop stop-color="#183866"/>
<stop offset="1" stop-color="#1A7FC1"/>
</linearGradient>
<linearGradient id="paint1_linear_1101_2" x1="155.995" y1="278.32" x2="160" y2="278.32" gradientUnits="userSpaceOnUse">
<stop/>
<stop offset="0.99" stop-opacity="0.01"/>
</linearGradient>
<linearGradient id="paint2_linear_1101_2" x1="178.988" y1="99.0296" x2="186.517" y2="114.12" gradientUnits="userSpaceOnUse">
<stop/>
<stop offset="0.99" stop-opacity="0.01"/>
</linearGradient>
<linearGradient id="paint3_linear_1101_2" x1="196.019" y1="-47.5107" x2="165.694" y2="-47.5827" gradientUnits="userSpaceOnUse">
<stop/>
<stop offset="0.99" stop-opacity="0.01"/>
</linearGradient>
<linearGradient id="paint4_linear_1101_2" x1="241.252" y1="74.7888" x2="233.422" y2="40.2855" gradientUnits="userSpaceOnUse">
<stop/>
<stop offset="0.99" stop-opacity="0.01"/>
</linearGradient>
<linearGradient id="paint5_linear_1101_2" x1="201.924" y1="111.478" x2="199.94" y2="110.851" gradientUnits="userSpaceOnUse">
<stop/>
<stop offset="0.99" stop-opacity="0.01"/>
</linearGradient>
<linearGradient id="paint6_linear_1101_2" x1="175.071" y1="79.1321" x2="163.616" y2="91.7829" gradientUnits="userSpaceOnUse">
<stop/>
<stop offset="0.99" stop-opacity="0.01"/>
</linearGradient>
<linearGradient id="paint7_linear_1101_2" x1="355.236" y1="30.4411" x2="22.0699" y2="-41.9069" gradientUnits="userSpaceOnUse">
<stop/>
<stop offset="1" stop-opacity="0.01"/>
</linearGradient>
<linearGradient id="paint8_linear_1101_2" x1="144.221" y1="180.831" x2="322.219" y2="180.831" gradientUnits="userSpaceOnUse">
<stop stop-color="#183866"/>
<stop offset="1" stop-color="#1A7FC1"/>
</linearGradient>
<linearGradient id="paint9_linear_1101_2" x1="51.869" y1="168.127" x2="52.8866" y2="239.945" gradientUnits="userSpaceOnUse">
<stop/>
<stop offset="0.99" stop-opacity="0.01"/>
</linearGradient>
<linearGradient id="paint10_linear_1101_2" x1="133.696" y1="185.601" x2="139.875" y2="217.235" gradientUnits="userSpaceOnUse">
<stop/>
<stop offset="0.99" stop-opacity="0.01"/>
</linearGradient>
<linearGradient id="paint11_linear_1101_2" x1="161.329" y1="192.446" x2="160.928" y2="204.749" gradientUnits="userSpaceOnUse">
<stop/>
<stop offset="0.99" stop-opacity="0.01"/>
</linearGradient>
<linearGradient id="paint12_linear_1101_2" x1="86.0351" y1="42.2097" x2="56.2714" y2="38.0362" gradientUnits="userSpaceOnUse">
<stop/>
<stop offset="0.99" stop-opacity="0.01"/>
</linearGradient>
<linearGradient id="paint13_linear_1101_2" x1="90.3867" y1="61.5259" x2="66.7212" y2="55.2394" gradientUnits="userSpaceOnUse">
<stop/>
<stop offset="0.99" stop-opacity="0.01"/>
</linearGradient>
<linearGradient id="paint14_linear_1101_2" x1="-129.945" y1="267.184" x2="-130.366" y2="329.093" gradientUnits="userSpaceOnUse">
<stop/>
<stop offset="0.99" stop-opacity="0.01"/>
</linearGradient>
<linearGradient id="paint15_linear_1101_2" x1="62.2068" y1="57.0276" x2="58.6851" y2="57.1154" gradientUnits="userSpaceOnUse">
<stop/>
<stop offset="0.99" stop-opacity="0.01"/>
</linearGradient>
<linearGradient id="paint16_linear_1101_2" x1="150.989" y1="124.325" x2="178.999" y2="124.325" gradientUnits="userSpaceOnUse">
<stop stop-color="#ECC4D7"/>
<stop offset="0.42" stop-color="#EFD4D1"/>
<stop offset="1" stop-color="#F2EAC9"/>
</linearGradient>
<linearGradient id="paint17_linear_1101_2" x1="182.748" y1="173.724" x2="208.748" y2="173.724" gradientUnits="userSpaceOnUse">
<stop stop-color="#ECC4D7"/>
<stop offset="0.42" stop-color="#EFD4D1"/>
<stop offset="1" stop-color="#F2EAC9"/>
</linearGradient>
<linearGradient id="paint18_linear_1101_2" x1="218.861" y1="177.554" x2="238.861" y2="177.554" gradientUnits="userSpaceOnUse">
<stop stop-color="#ECC4D7"/>
<stop offset="0.42" stop-color="#EFD4D1"/>
<stop offset="1" stop-color="#F2EAC9"/>
</linearGradient>
<linearGradient id="paint19_linear_1101_2" x1="305.774" y1="152.801" x2="222.19" y2="250.173" gradientUnits="userSpaceOnUse">
<stop stop-color="#362958" stop-opacity="0.500601"/>
<stop offset="1" stop-color="#34313D" stop-opacity="0.01"/>
</linearGradient>
<linearGradient id="paint20_linear_1101_2" x1="218.125" y1="-63.5161" x2="216.959" y2="-63.9474" gradientUnits="userSpaceOnUse">
<stop/>
<stop offset="0.99" stop-opacity="0.01"/>
</linearGradient>
</defs>
</svg>
